{"title":"Power Rangers Super Megaforce Vrak Is Back, Part 2 WEB-DL","uid":11360650,"size":262196221,"categoryP":"video","categoryS":"tv_shows","magnet":"?xt=urn:btih:1756f194c35c4ac41c2d39f3e18e673c44dc481e&amp;dn=+Power+Rangers+Super+Megaforce+Vrak+Is+Back%2C+Part+2+WEB-DL&amp;tr=udp%3A%2F%2Ftracker.openbittorrent.com%3A80&amp;tr=udp%3A%2F%2Fopen.demonii.com%3A1337&amp;tr=udp%3A%2F%2Ftracker.coppersurfer.tk%3A6969&amp;tr=udp%3A%2F%2Fexodus.desync.com%3A6969","seeders":2,"leechers":1,"uploader":"jmanwf","files":-1,"time":1414992844,"description":"With Orion kidnapped and Robo Knight turned against them, the Megaforce Rangers must do everything they can to defeat Vrak and save their friends\n\n\n\nFormat : MPEG-4\nFormat profile : Base Media\nCodec ID : isom\nFile size : 250 MiB\nDuration : 23mn 34s\nOverall bit rate : 1 482 Kbps\nWriting application : Lavf54.59.106\n\nVideo\nID : 1\nFormat : AVC\nFormat/Info : Advanced Video Codec\nFormat profile : &lt;a class=&quot;__cf_email__&quot; href=&quot;/cdn-cgi/l/email-protection&quot; data-cfemail=&quot;cb83a2aca38b87f8e5fa&quot;&gt;[email&amp;#160;protected]&lt;/a&gt;&lt;script cf-hash='f9e31' type=&quot;text/javascript&quot;&gt;\n/* &lt;![CDATA[ */!function(){try{var t=&quot;currentScript&quot;in document?document.currentScript:function(){for(var t=document.getElementsByTagName(&quot;script&quot;),e=t.length;e--;)if(t[e].getAttribute(&quot;cf-hash&quot;))return t[e]}();if(t&amp;&amp;t.previousSibling){var e,r,n,i,c=t.previousSibling,a=c.getAttribute(&quot;data-cfemail&quot;);if(a){for(e=&quot;&quot;,r=parseInt(a.substr(0,2),16),n=2;a.length-n;n+=2)i=parseInt(a.substr(n,2),16)^r,e+=String.fromCharCode(i);e=document.createTextNode(e),c.parentNode.replaceChild(e,c)}}}catch(u){}}();/* ]]&gt; */&lt;/script&gt;\nFormat settings, CABAC : Yes\nFormat settings, ReFrames : 5 frames\nCodec ID : avc1\nCodec ID/Info : Advanced Video Coding\nDuration : 23mn 34s\nBit rate : 1 413 Kbps\nWidth : 1 280 pixels\nHeight : 720 pixels\nDisplay aspect ratio : 16:9\nFrame rate mode : Variable\nFrame rate : 23.976 fps\nMinimum frame rate : 2.639 fps\nMaximum frame rate : 58.824 fps\nColor space : YUV\nChroma subsampling : 4:2:0\nBit depth : 8 bits\nScan type : Progressive\nBits/(Pixel*Frame) : 0.064\nStream size : 238 MiB (95%)\n\nAudio\nID : 2\nFormat : AAC\nFormat/Info : Advanced Audio Codec\nFormat profile : HE-AAC / LC\nCodec ID : 40\nDuration : 23mn 34s\nBit rate mode : Constant\nBit rate : 64.0 Kbps\nChannel(s) : 2 channels\nChannel positions : Front: L R\nSampling rate : 48.0 KHz / 24.0 KHz\nCompression mode : Lossy\nStream size : 10.8 MiB (4%)\n\n\nSeason 21 Episode 17 | Aired on 11/01/2014 | TV-Y7-FV | 23:34","torrent":{"xt":"urn:btih:1756f194c35c4ac41c2d39f3e18e673c44dc481e","amp;dn":"+Power+Rangers+Super+Megaforce+Vrak+Is+Back%2C+Part+2+WEB-DL","amp;tr":["udp%3A%2F%2Ftracker.openbittorrent.com%3A80","udp%3A%2F%2Fopen.demonii.com%3A1337","udp%3A%2F%2Ftracker.coppersurfer.tk%3A6969","udp%3A%2F%2Fexodus.desync.com%3A6969"],"infoHash":"1756f194c35c4ac41c2d39f3e18e673c44dc481e","infoHashBuffer":{"type":"Buffer","data":[23,86,241,148,195,92,74,196,28,45,57,243,225,142,103,60,68,220,72,30]},"announce":[],"urlList":[]}}